<svg version="1.1" id="Capa_1" xmlns="http://www.w3.org/2000/svg" xmlns:xlink="http://www.w3.org/1999/xlink" x="0px" y="0px"
	 viewBox="0 0 63 63" style="enable-background:new 0 0 63 63;" xml:space="preserve">
<g>
	<g id="group-35svg">
		<path id="path-1_26_" d="M58.271,48.164c-0.828,0-1.5-0.672-1.5-1.501c0-13.979-11.364-25.351-25.333-25.351
			c-13.968,0-25.333,11.372-25.333,25.351c0,0.829-0.671,1.501-1.5,1.501c-0.828,0-1.5-0.672-1.5-1.501
			c0-15.634,12.71-28.353,28.333-28.353s28.333,12.719,28.333,28.353C59.771,47.492,59.1,48.164,58.271,48.164z"/>
		<path id="path-2_25_" d="M26.573,16.252h-16c-0.828,0-1.5-0.672-1.5-1.501c0-0.829,0.672-1.501,1.5-1.501h16
			c0.828,0,1.5,0.672,1.5,1.501C28.073,15.58,27.401,16.252,26.573,16.252z"/>
		<path id="path-3_24_" d="M50.573,16.252h-15c-0.828,0-1.5-0.672-1.5-1.501c0-0.829,0.672-1.501,1.5-1.501h15
			c0.828,0,1.5,0.672,1.5,1.501C52.073,15.58,51.401,16.252,50.573,16.252z"/>
		<path id="path-4_16_" d="M30.758,19.793c-3.051,0-5.532-2.483-5.532-5.536c0-3.052,2.481-5.536,5.532-5.536
			c3.05,0,5.531,2.484,5.531,5.536C36.289,17.31,33.808,19.793,30.758,19.793z M30.758,11.723c-1.397,0-2.532,1.137-2.532,2.534
			s1.135,2.534,2.532,2.534c1.395,0,2.531-1.137,2.531-2.534S32.153,11.723,30.758,11.723z"/>
		<path id="path-5_11_" d="M63,52.778c0,0.829-0.672,1.501-1.5,1.501h-6c-0.829,0-1.5-0.672-1.5-1.501v-6.004
			c0-0.829,0.671-1.501,1.5-1.501h6c0.828,0,1.5,0.672,1.5,1.501V52.778z M57,51.277h3v-3.002h-3V51.277z"/>
		<path id="path-6_5_" d="M60,18.754c0,0.829-0.672,1.501-1.5,1.501h-6c-0.829,0-1.5-0.672-1.5-1.501v-7.005
			c0-0.829,0.671-1.501,1.5-1.501h6c0.828,0,1.5,0.672,1.5,1.501V18.754z M54,17.253h3V13.25h-3V17.253z"/>
		<path id="path-7_2_" d="M12,18.754c0,0.829-0.672,1.501-1.5,1.501h-6c-0.829,0-1.5-0.672-1.5-1.501v-7.005
			c0-0.829,0.671-1.501,1.5-1.501h6c0.828,0,1.5,0.672,1.5,1.501V18.754z M6,17.253h3V13.25H6V17.253z"/>
		<path id="path-8" d="M9,52.778c0,0.829-0.672,1.501-1.5,1.501h-6c-0.829,0-1.5-0.672-1.5-1.501v-6.004
			c0-0.829,0.671-1.501,1.5-1.501h6c0.828,0,1.5,0.672,1.5,1.501V52.778z M3,51.277h3v-3.002H3V51.277z"/>
	</g>
</g>
</svg>
