<svg version="1.1" id="Capa_1" xmlns="http://www.w3.org/2000/svg" xmlns:xlink="http://www.w3.org/1999/xlink" x="0px" y="0px"
	 viewBox="0 0 60.182 60.182" style="enable-background:new 0 0 60.182 60.182;" xml:space="preserve">
<g>
	<g id="group-21svg">
		<path id="path-1_12_" d="M30.091,35.904c-0.833,0-1.642-0.168-2.407-0.501L3.636,24.951C1.394,23.977,0,21.852,0,19.406
			c0-2.447,1.394-4.572,3.636-5.547L27.684,3.408c1.529-0.665,3.285-0.665,4.814,0l24.049,10.451c2.242,0.975,3.635,3.1,3.635,5.547
			c0,2.446-1.393,4.571-3.635,5.545L32.498,35.403C31.734,35.736,30.924,35.904,30.091,35.904z M30.091,5.909
			c-0.42,0-0.827,0.085-1.212,0.252L4.831,16.613C3.685,17.111,3,18.155,3,19.405c0,1.251,0.685,2.295,1.831,2.793L28.879,32.65
			c0.77,0.334,1.654,0.334,2.424,0l24.049-10.452c1.146-0.498,1.83-1.542,1.83-2.793c0-1.25-0.684-2.294-1.83-2.792L31.303,6.161
			C30.918,5.994,30.511,5.909,30.091,5.909z"/>
		<path id="path-2_12_" d="M30.091,57.272c-0.816,0-1.633-0.165-2.393-0.496L3.831,46.403c-2.229-0.969-3.614-3.082-3.614-5.514
			c0-2.433,1.385-4.546,3.614-5.515c0.761-0.33,1.643,0.019,1.974,0.779c0.33,0.761-0.019,1.645-0.778,1.975
			c-1.133,0.492-1.81,1.524-1.81,2.761c0,1.236,0.676,2.268,1.81,2.76l23.866,10.373c0.762,0.331,1.635,0.331,2.396,0l23.867-10.373
			c1.134-0.492,1.81-1.524,1.81-2.76c0-1.237-0.677-2.269-1.81-2.761c-0.759-0.33-1.108-1.214-0.778-1.975
			c0.329-0.76,1.214-1.109,1.974-0.779c2.229,0.969,3.614,3.082,3.614,5.515c0,2.432-1.385,4.545-3.614,5.514L32.485,56.776
			C31.724,57.107,30.907,57.272,30.091,57.272z"/>
		<path id="path-3_12_" d="M30.091,43.912c-0.726,0-1.452-0.147-2.13-0.441L7.596,34.619c-0.76-0.33-1.108-1.214-0.778-1.974
			c0.331-0.761,1.214-1.11,1.973-0.779l20.366,8.851c0.594,0.259,1.276,0.258,1.869,0l20.366-8.851
			c0.76-0.33,1.643,0.018,1.973,0.779c0.331,0.76-0.018,1.644-0.778,1.974l-20.366,8.852C31.544,43.765,30.818,43.912,30.091,43.912
			z"/>
	</g>
</g>
</svg>
