<svg version="1.1" id="Layer_1" xmlns="http://www.w3.org/2000/svg" xmlns:xlink="http://www.w3.org/1999/xlink" x="0px" y="0px"
	 viewBox="0 0 508 508" style="enable-background:new 0 0 508 508;" xml:space="preserve">
<g>
	<path style="fill:#ACD9EA;" d="M254,286.2c-0.4,0-0.8,0-1.2-0.4L16.8,95c-6.8,6.8-11.2,16.4-11.2,26.8v270
		c0,10.4,4.4,19.6,11.2,26.8L194.4,275c0.8-0.8,2-0.4,2.8,0.4s0.4,2-0.4,2.8l-177.2,144c6.4,5.2,14.8,9.2,23.6,9.2H464
		c8.8,0,17.2-3.6,23.6-9.2L310.4,278.6c-0.8-0.8-0.8-2-0.4-2.8c0.8-0.8,2-1.2,2.8-0.4L490.4,419c6.8-6.8,10.8-16.4,10.8-26.8v-270
		c0-10.4-4-19.6-10.8-26.8L254.8,286.2C255.2,285.8,254.8,286.2,254,286.2z"/>
	<path style="fill:#ACD9EA;" d="M464.4,82.2H43.6c-8.8,0-17.2,4-23.6,9.2v0.4l234,189.6L488,92.2v-0.8
		C481.6,86.2,473.6,82.2,464.4,82.2z"/>
</g>
<path style="fill:#CDEEF9;" d="M464.4,82.2h-32.8L254.4,227.4L76.8,82.2H44.4c-8.8,0-17.2,4-23.6,9.2v0.4l234,189.6l234-189.2v-0.8
	C481.6,86.2,473.6,82.2,464.4,82.2z"/>
<path d="M464.4,432.2H43.6C20,432.2,0,411.8,0,387.4V118.6c0-24,19.2-42.8,43.6-42.8h420.8c24.4,0,43.6,18.8,43.6,42.8v268.8
	C508,411.8,488,432.2,464.4,432.2z M43.6,84.2C23.6,84.2,8,99.4,8,119v268.8c0,20,16.4,36.8,35.6,36.8h420.8
	c19.2,0,35.6-16.8,35.6-36.8V119c0-19.6-15.6-34.8-35.6-34.8H43.6z"/>
<path d="M20,421.8c-1.2,0-2.4-0.4-3.2-1.6c-1.2-1.6-1.2-4.4,0.4-5.6l176-142.4c1.6-1.2,4.4-1.2,5.6,0.8c1.2,1.6,1.2,4.4-0.4,5.6
	L22.4,421C21.6,421.8,20.8,421.8,20,421.8z"/>
<path d="M488.4,422.6c-0.8,0-1.6-0.4-2.4-0.8L310,279c-1.6-1.2-2-4-0.4-5.6c1.2-1.6,4-2,5.6-0.4l176,142.8c1.6,1.2,2,4,0.4,5.6
	C490.8,421.8,489.6,422.6,488.4,422.6z"/>
<path d="M254,288.2c-0.8,0-1.6-0.4-2.4-0.8L14.4,95.4c-1.6-1.2-2-4-0.4-5.6c1.2-1.6,4-2,5.6-0.4l234.4,190l234.4-190
	c1.6-1.2,4.4-1.2,5.6,0.4s1.2,4.4-0.4,5.6l-237.2,192C256,287.8,255.2,288.2,254,288.2z"/>
<path d="M254,233c-0.8,0-1.6-0.4-2.4-0.8L69.6,85c-1.6-1.2-2-4-0.4-5.6c1.2-1.6,4-2,5.6-0.4l179.6,145.2l22-17.6
	c1.6-1.2,4.4-1.2,5.6,0.4c1.2,1.6,1.2,4.4-0.4,5.6l-24.4,19.6C256,232.6,255.2,233,254,233z"/>
<path d="M309.6,188.2c-1.2,0-2.4-0.4-3.2-1.6c-1.2-1.6-1.2-4.4,0.4-5.6L433.6,78.6c1.6-1.2,4.4-1.2,5.6,0.4c1.2,1.6,1.2,4.4-0.4,5.6
	L312,187C311.2,188.2,310.4,188.2,309.6,188.2z"/>
</svg>
