<svg version="1.1" id="Capa_1" xmlns="http://www.w3.org/2000/svg" xmlns:xlink="http://www.w3.org/1999/xlink" x="0px" y="0px"
	 viewBox="0 0 63.045 63.045" style="enable-background:new 0 0 63.045 63.045;" xml:space="preserve">
<g>
	<g id="group-13svg">
		<path id="path-1_3_" d="M37.938,44.791c-0.078,0-0.156-0.006-0.234-0.018c-0.565-0.089-1.029-0.491-1.199-1.037l-4.068-13.097
			l-13.089-4.072c-0.545-0.17-0.947-0.634-1.036-1.199c-0.09-0.564,0.149-1.13,0.615-1.46l11.192-7.919L29.943,2.274
			c-0.007-0.571,0.31-1.098,0.819-1.357s1.119-0.207,1.578,0.135l10.984,8.203L56.305,4.85c0.538-0.184,1.139-0.044,1.542,0.36
			c0.404,0.404,0.543,1.003,0.361,1.544l-4.403,12.989l8.197,10.992c0.342,0.458,0.394,1.07,0.135,1.58
			c-0.26,0.508-0.756,0.826-1.356,0.819l-13.704-0.175l-7.914,11.198C38.878,44.559,38.42,44.791,37.938,44.791z M23.141,24.603
			l10.94,3.403c0.471,0.146,0.84,0.516,0.987,0.987l3.4,10.948l6.615-9.36c0.285-0.403,0.705-0.648,1.244-0.634l11.454,0.146
			l-6.852-9.187c-0.295-0.396-0.377-0.912-0.219-1.38L54.39,8.67l-10.849,3.681c-0.468,0.159-0.983,0.077-1.379-0.218l-9.18-6.856
			l0.146,11.462c0.006,0.494-0.23,0.96-0.633,1.245L23.141,24.603z"/>
		<path id="path-2_3_" d="M3.699,63.045c-0.768,0-1.535-0.293-2.121-0.88c-1.172-1.172-1.172-3.073,0-4.245l21.28-21.295
			c1.172-1.173,3.07-1.173,4.242,0c1.172,1.172,1.172,3.073,0,4.245L5.82,62.165C5.234,62.752,4.466,63.045,3.699,63.045z"/>
		<path id="path-3_3_" d="M61.56,22.094c-1.048,1.049-2.748,1.049-3.795,0c-1.049-1.049-1.049-2.749,0-3.798
			c1.047-1.049,2.747-1.049,3.795,0S62.608,21.045,61.56,22.094z"/>
		<path id="path-4_3_" d="M44.063,4.585c-1.048,1.049-2.748,1.049-3.795,0c-1.048-1.049-1.048-2.75,0-3.798
			c1.047-1.049,2.747-1.049,3.795,0C45.111,1.835,45.111,3.536,44.063,4.585z"/>
		<path id="path-5_1_" d="M53.326,40.633c-1.048,1.049-2.747,1.049-3.795,0c-1.049-1.049-1.049-2.749,0-3.798
			c1.048-1.049,2.747-1.049,3.795,0S54.374,39.584,53.326,40.633z"/>
		<path id="path-6_1_" d="M26.566,13.854c-1.048,1.049-2.747,1.049-3.795,0c-1.048-1.048-1.048-2.749,0-3.798
			c1.048-1.048,2.747-1.048,3.795,0C27.614,11.105,27.614,12.806,26.566,13.854z"/>
	</g>
</g>
</svg>
