<svg version="1.1" id="Capa_1" xmlns="http://www.w3.org/2000/svg" xmlns:xlink="http://www.w3.org/1999/xlink" x="0px" y="0px"
	 viewBox="0 0 63 63" style="enable-background:new 0 0 63 63;" xml:space="preserve">
<g>
	<g id="group-18svg">
		<path id="path-1_8_" d="M45,46.209c0,5.248-4.253,9.503-9.5,9.503h-26c-5.247,0-9.5-4.255-9.5-9.503V30.204
			c0-5.248,4.253-9.503,9.5-9.503h26c5.247,0,9.5,4.255,9.5,9.503V46.209z M42,30.204c0-3.591-2.91-6.502-6.5-6.502h-26
			c-3.59,0-6.5,2.911-6.5,6.502v16.005c0,3.591,2.91,6.502,6.5,6.502h26c3.59,0,6.5-2.911,6.5-6.502V30.204z"/>
		<path id="path-2_8_" d="M59.127,57.099c-0.676,0-1.453-0.193-2.045-0.559l-14.235-8.783c-0.456-0.282-0.754-0.788-0.737-1.324
			l0.439-13.746c0.015-0.494,0.267-0.948,0.683-1.215L56.933,22.7c0.605-0.385,1.502-0.587,2.194-0.587
			c2.018,0,3.873,1.671,3.873,3.726v27.533C63,55.428,61.144,57.099,59.127,57.099z M45.11,45.663l13.658,8.325
			C59.195,54.255,60,53.996,60,53.372V25.839c0-0.626-0.803-0.89-1.243-0.609l-13.143,8.344L45.11,45.663z"/>
		<path id="path-3_8_" d="M29.657,23.43c-3.912,0-7.095-3.184-7.095-7.097c0-3.914,3.183-7.098,7.095-7.098s7.096,3.184,7.096,7.098
			C36.753,20.246,33.569,23.43,29.657,23.43z M29.657,12.236c-2.258,0-4.095,1.837-4.095,4.097c0,2.258,1.837,4.096,4.095,4.096
			c2.259,0,4.096-1.838,4.096-4.096C33.753,14.073,31.916,12.236,29.657,12.236z"/>
		<path id="path-4_8_" d="M16.88,23.43c-4.832,0-8.763-3.932-8.763-8.765c0-4.832,3.931-8.764,8.763-8.764
			c4.831,0,8.762,3.932,8.762,8.764C25.642,19.498,21.711,23.43,16.88,23.43z M16.88,8.902c-3.178,0-5.763,2.585-5.763,5.763
			s2.585,5.764,5.763,5.764c3.177,0,5.762-2.586,5.762-5.764S20.057,8.902,16.88,8.902z"/>
	</g>
</g>
</svg>
